<svg version="1.1" xmlns="http://www.w3.org/2000/svg" xmlns:xlink="http://www.w3.org/1999/xlink" shape-rendering="crispEdges" width="64" height="457.05078125" viewBox="0 0 64 457.05078125"><g><path fill="rgba(255,170,204,255)" d="M0,0h38v1h-38ZM49,0h12v1h-12ZM63,0h1v1h-1ZM0,1h64v2h-64ZM0,3h60v1h-60ZM0,4h64v1h-64ZM0,5h12v1h-12ZM15,5h19v1h-19ZM51,5h13v1h-13ZM0,6h64v1h-64ZM0,7h56v1h-56ZM0,8h18v1h-18ZM1,13h2v1h-2ZM21,13h4v1h-4ZM38,13h8v1h-8ZM58,13h6v1h-6ZM0,14h54v1h-54ZM27,17h37v1h-37ZM0,18h53v1h-53ZM57,18h7v1h-7ZM0,19h3v1h-3ZM18,19h10v1h-10ZM46,19h18v1h-18ZM0,20h12v1h-12ZM32,20h2v1h-2ZM37,20h25v1h-25ZM1,21h50v1h-50ZM54,21h10v2h-10ZM0,22h51v1h-51ZM0,23h34v1h-34ZM37,23h27v1h-27ZM0,24h64v19h-64ZM0,43h8v1h-8ZM6,44h2v1h-2ZM4,45h2v1h-2ZM1,46h14v1h-14ZM56,51h8v1h-8ZM0,52h18v1h-18ZM22,52h6v1h-6ZM32,52h22v1h-22ZM57,55h4v1h-4ZM15,62h2v1h-2ZM49,62h2v1h-2ZM59,62h2v1h-2ZM25,63h2v1h-2ZM35,63h2v1h-2ZM45,63h7v1h-7ZM20,64h16v1h-16ZM10,66h7v1h-7ZM22,67h5v1h-5ZM52,67h10v1h-10ZM9,68h55v1h-55ZM0,69h41v1h-41ZM44,69h3v1h-3ZM26,70h5v1h-5ZM49,71h15v1h-15ZM0,72h7v1h-7ZM13,72h2v1h-2ZM24,72h40v1h-40ZM0,73h64v2h-64ZM0,75h26v1h-26ZM44,76h20v1h-20ZM0,77h26v1h-26ZM55,77h9v1h-9ZM0,78h51v1h-51ZM0,79h64v3h-64ZM0,82h7v1h-7ZM7,84h9v1h-9ZM29,84h10v1h-10ZM24,85h12v1h-12ZM29,86h7v1h-7ZM2,88h29v1h-29ZM47,93h7v1h-7ZM31,99h14v1h-14ZM34,103h3v1h-3ZM44,103h2v1h-2ZM52,103h12v1h-12ZM32,104h32v1h-32ZM0,105h33v1h-33ZM37,105h4v1h-4ZM18,106h14v1h-14ZM3,112h12v1h-12ZM6,114h58v1h-58ZM0,115h64v1h-64ZM0,116h46v1h-46ZM48,117h10v1h-10ZM14,126h38v1h-38ZM27,129h10v1h-10ZM60,129h4v1h-4ZM0,130h6v1h-6ZM24,130h10v1h-10ZM33,131h4v1h-4ZM39,131h10v1h-10ZM29,132h35v1h-35ZM0,133h64v1h-64ZM0,134h5v1h-5ZM40,134h8v1h-8ZM55,134h9v1h-9ZM0,135h3v1h-3ZM6,135h8v1h-8ZM41,136h23v1h-23ZM0,137h64v1h-64ZM0,138h57v1h-57ZM3,141h32v1h-32ZM4,142h54v1h-54ZM11,143h34v1h-34ZM61,146h3v1h-3ZM0,147h64v8h-64ZM0,155h47v1h-47ZM49,155h4v1h-4ZM59,155h2v1h-2ZM10,156h2v1h-2ZM23,156h41v1h-41ZM0,157h64v1h-64ZM0,158h1v1h-1ZM12,281h52v1h-52ZM0,282h64v77h-64ZM0,359h5v1h-5ZM34,362h30v1h-30ZM0,363h21v1h-21ZM8,368h56v1h-56ZM0,369h64v1h-64ZM0,370h15v1h-15Z"/><path fill="rgba(204,221,255,255)" d="M38,0h11v1h-11ZM61,0h2v1h-2ZM60,3h4v1h-4ZM12,5h3v1h-3ZM34,5h17v1h-17ZM56,7h8v1h-8ZM18,8h46v1h-46ZM0,9h64v4h-64ZM0,13h1v1h-1ZM3,13h18v1h-18ZM25,13h13v1h-13ZM54,14h10v1h-10ZM0,15h64v2h-64ZM0,17h27v1h-27ZM53,18h4v1h-4ZM3,19h15v1h-15ZM28,19h18v1h-18ZM12,20h20v1h-20ZM34,20h3v1h-3ZM62,20h2v1h-2ZM0,21h1v1h-1ZM51,21h3v2h-3ZM34,23h3v1h-3ZM8,43h56v1h-56ZM0,44h6v1h-6ZM8,44h42v1h-42ZM56,44h8v1h-8ZM0,45h4v1h-4ZM6,45h58v1h-58ZM0,46h1v1h-1ZM15,46h49v1h-49ZM0,47h64v2h-64ZM0,49h53v1h-53ZM7,50h57v1h-57ZM0,51h56v1h-56ZM18,52h4v1h-4ZM28,52h4v1h-4ZM54,52h10v1h-10ZM0,53h64v1h-64ZM0,54h1v1h-1ZM11,54h53v1h-53ZM0,55h57v1h-57ZM61,55h3v1h-3ZM0,56h64v6h-64ZM0,62h15v1h-15ZM17,62h32v1h-32ZM51,62h8v1h-8ZM61,62h3v1h-3ZM0,63h25v1h-25ZM27,63h8v1h-8ZM37,63h8v1h-8ZM52,63h12v1h-12ZM0,64h20v1h-20ZM36,64h28v1h-28ZM0,65h64v1h-64ZM0,66h10v1h-10ZM17,66h47v1h-47ZM0,67h22v1h-22ZM27,67h25v1h-25ZM62,67h2v1h-2ZM0,68h9v1h-9ZM41,69h3v1h-3ZM47,69h17v1h-17ZM0,70h26v1h-26ZM31,70h33v1h-33ZM0,71h49v1h-49ZM7,72h6v1h-6ZM15,72h9v1h-9ZM26,75h38v1h-38ZM0,76h44v1h-44ZM26,77h29v1h-29ZM51,78h13v1h-13ZM7,82h57v1h-57ZM0,83h64v1h-64ZM0,84h7v1h-7ZM16,84h13v1h-13ZM39,84h25v1h-25ZM0,85h24v1h-24ZM36,85h28v2h-28ZM0,86h29v1h-29ZM0,87h64v1h-64ZM0,88h2v1h-2ZM31,88h33v1h-33ZM0,89h64v4h-64ZM0,93h47v1h-47ZM54,93h10v1h-10ZM0,94h64v5h-64ZM0,99h31v1h-31ZM45,99h19v1h-19ZM0,100h64v3h-64ZM0,103h34v1h-34ZM37,103h7v1h-7ZM46,103h6v1h-6ZM0,104h32v1h-32ZM33,105h4v1h-4ZM41,105h23v1h-23ZM0,106h18v1h-18ZM32,106h32v1h-32ZM0,107h64v5h-64ZM0,112h3v1h-3ZM15,112h49v1h-49ZM0,113h27v1h-27ZM46,116h18v1h-18ZM0,117h48v1h-48ZM58,117h6v1h-6ZM0,118h64v1h-64ZM0,119h5v1h-5ZM48,124h16v1h-16ZM0,125h64v1h-64ZM0,126h14v1h-14ZM52,126h12v1h-12ZM0,127h55v1h-55ZM1,128h63v1h-63ZM0,129h27v1h-27ZM37,129h23v1h-23ZM6,130h18v1h-18ZM34,130h30v1h-30ZM0,131h17v1h-17ZM45,360h19v1h-19ZM0,361h1v1h-1ZM14,361h41v1h-41ZM21,363h17v1h-17ZM15,366h48v1h-48ZM15,370h35v1h-35ZM51,370h13v1h-13ZM0,371h64v1h-64ZM0,372h6v1h-6Z"/><path fill="rgba(255,255,204,255)" d="M46,13h12v1h-12ZM50,44h6v1h-6ZM53,49h11v1h-11ZM0,50h7v1h-7ZM1,54h10v1h-10ZM27,113h37v1h-37ZM0,114h6v1h-6ZM20,120h44v1h-44ZM0,121h64v3h-64ZM0,124h48v1h-48ZM55,127h9v1h-9ZM0,128h1v1h-1ZM17,131h16v1h-16ZM37,131h2v1h-2ZM49,131h15v1h-15ZM0,132h29v1h-29ZM5,134h35v1h-35ZM48,134h7v1h-7ZM3,135h3v1h-3ZM14,135h50v1h-50ZM0,136h41v1h-41ZM57,138h7v1h-7ZM0,139h64v2h-64ZM0,141h3v1h-3ZM35,141h29v1h-29ZM0,142h4v1h-4ZM58,142h6v1h-6ZM0,143h11v1h-11ZM45,143h19v1h-19ZM0,144h64v2h-64ZM0,146h61v1h-61ZM47,155h2v1h-2ZM53,155h6v1h-6ZM61,155h3v1h-3ZM0,156h10v1h-10ZM12,156h11v1h-11ZM5,359h59v1h-59ZM0,360h45v1h-45ZM1,361h13v1h-13ZM55,361h9v1h-9ZM0,362h34v1h-34Z"/><path fill="rgba(204,255,204,255)" d="M5,119h59v1h-59ZM0,120h20v1h-20ZM63,209h1v1h-1ZM0,210h64v8h-64ZM0,218h31v1h-31ZM52,277h12v1h-12ZM0,278h64v3h-64ZM0,281h12v1h-12Z"/><path fill="rgba(204,170,204,255)" d="M1,158h63v1h-63ZM0,159h64v50h-64ZM0,209h63v1h-63ZM31,218h33v1h-33ZM0,219h64v58h-64ZM0,277h52v1h-52Z"/><path fill="rgba(0,0,0,0)" d="M38,363h3v1h-3ZM34,364h1v1h-1ZM12,366h3v1h-3ZM63,366h1v1h-1ZM0,367h1v1h-1ZM7,368h1v1h-1ZM50,370h1v1h-1ZM6,372h4v1h-4ZM22,392h3v1h-3ZM55,393h3v1h-3ZM11,394h11v1h-11Z"/><path fill="rgba(0,204,221,255)" d="M41,363h1v1h-1ZM1,367h1v1h-1Z"/><path fill="rgba(255,204,221,255)" d="M42,363h22v1h-22ZM0,364h33v1h-33ZM2,367h51v1h-51ZM51,455h6v1h-6Z"/><path fill="rgba(255,0,0,0)" d="M33,364h1v1h-1ZM6,368h1v1h-1Z"/><path fill="rgba(0,0,204,221)" d="M35,364h1v1h-1ZM20,365h1v1h-1Z"/><path fill="rgba(255,255,204,221)" d="M36,364h28v1h-28ZM0,365h19v1h-19ZM21,365h19v1h-19Z"/><path fill="rgba(255,255,0,0)" d="M19,365h1v1h-1Z"/><path fill="rgba(255,255,255,170)" d="M40,365h1v1h-1Z"/><path fill="rgba(204,255,255,170)" d="M41,365h23v1h-23ZM0,366h11v1h-11ZM26,392h38v1h-38ZM0,393h43v1h-43ZM52,393h2v1h-2ZM59,393h5v1h-5ZM0,394h10v1h-10Z"/><path fill="rgba(204,255,0,0)" d="M11,366h1v1h-1ZM54,393h1v1h-1ZM10,394h1v1h-1Z"/><path fill="rgba(255,255,170,204)" d="M53,367h11v1h-11ZM0,368h6v1h-6ZM23,394h1v1h-1ZM26,394h38v1h-38ZM0,395h9v1h-9ZM21,396h43v1h-43ZM0,397h64v1h-64ZM0,398h3v1h-3ZM38,414h26v1h-26ZM0,415h64v2h-64ZM0,417h36v1h-36ZM6,418h52v1h-52ZM63,418h1v1h-1ZM0,419h63v1h-63ZM4,420h60v1h-60ZM0,421h1v1h-1ZM11,421h53v1h-53ZM0,422h10v1h-10ZM17,422h47v1h-47ZM0,423h64v21h-64ZM0,444h40v1h-40ZM22,449h2v1h-2ZM15,450h49v1h-49ZM0,451h64v4h-64ZM0,455h51v1h-51ZM57,455h7v1h-7ZM0,456h3v1h-3Z"/><path fill="rgba(0,0,0,204)" d="M10,372h1v1h-1Z"/><path fill="rgba(221,255,255,204)" d="M11,372h53v1h-53ZM0,373h64v2h-64ZM0,375h35v1h-35ZM43,375h21v1h-21ZM0,376h64v4h-64ZM0,380h37v1h-37ZM41,381h23v1h-23ZM0,382h64v9h-64ZM0,391h35v1h-35ZM45,391h19v1h-19ZM0,392h11v1h-11Z"/><path fill="rgba(221,255,255,255)" d="M35,375h1v1h-1ZM37,380h1v1h-1ZM35,391h1v1h-1Z"/><path fill="rgba(170,204,255,255)" d="M36,375h6v1h-6ZM1,381h39v1h-39ZM36,391h8v1h-8Z"/><path fill="rgba(170,204,255,204)" d="M42,375h1v1h-1ZM40,381h1v1h-1ZM44,391h1v1h-1Z"/><path fill="rgba(255,204,255,255)" d="M38,380h26v1h-26ZM0,381h1v1h-1Z"/><path fill="rgba(255,204,255,204)" d="M11,392h10v1h-10Z"/><path fill="rgba(255,204,255,0)" d="M21,392h1v1h-1Z"/><path fill="rgba(0,0,255,170)" d="M25,392h1v1h-1ZM58,393h1v1h-1Z"/><path fill="rgba(204,255,255,255)" d="M43,393h9v1h-9Z"/><path fill="rgba(0,255,170,204)" d="M22,394h1v1h-1Z"/><path fill="rgba(255,255,255,204)" d="M24,394h2v1h-2ZM9,395h55v1h-55ZM0,396h21v1h-21ZM3,398h61v1h-61ZM0,399h64v15h-64ZM0,414h38v1h-38ZM36,417h28v1h-28ZM0,418h6v1h-6ZM58,418h5v1h-5ZM63,419h1v1h-1ZM0,420h4v1h-4ZM1,421h10v1h-10ZM10,422h7v1h-7ZM40,444h24v1h-24ZM0,445h64v4h-64ZM0,449h22v1h-22ZM24,449h40v1h-40ZM0,450h15v1h-15Z"/><path fill="rgba(255,undefined,undefined,undefined)" d="M3,456h1v1h-1Z"/></g></svg>