<svg version="1.1" xmlns="http://www.w3.org/2000/svg" xmlns:xlink="http://www.w3.org/1999/xlink" shape-rendering="crispEdges" width="64" height="500" viewBox="0 0 64 500"><g><path fill="rgba(0,0,0,255)" d="M0,0h38v1h-38ZM49,0h12v1h-12ZM63,0h1v1h-1ZM0,1h64v2h-64ZM0,3h60v1h-60ZM0,4h64v1h-64ZM0,5h12v1h-12ZM15,5h19v1h-19ZM48,5h16v1h-16ZM0,6h64v1h-64ZM0,7h53v1h-53ZM61,7h3v1h-3ZM0,8h15v1h-15ZM1,13h2v1h-2ZM21,13h4v1h-4ZM38,13h26v1h-26ZM0,14h14v1h-14ZM16,14h32v1h-32ZM15,17h49v1h-49ZM0,18h51v1h-51ZM63,18h1v1h-1ZM0,19h9v1h-9ZM15,19h30v1h-30ZM62,19h2v1h-2ZM0,20h64v22h-64ZM0,42h23v1h-23ZM15,43h2v1h-2ZM50,43h4v1h-4ZM0,44h2v1h-2ZM5,44h6v1h-6ZM19,44h33v1h-33ZM56,44h2v1h-2ZM6,45h10v1h-10ZM62,46h2v1h-2ZM0,47h20v1h-20ZM17,48h5v1h-5ZM59,48h5v1h-5ZM0,49h11v1h-11ZM33,49h31v1h-31ZM0,50h20v1h-20ZM55,51h4v1h-4ZM7,57h2v1h-2ZM24,57h2v1h-2ZM31,57h2v1h-2ZM39,57h2v1h-2ZM52,57h4v1h-4ZM59,57h2v1h-2ZM3,58h2v1h-2ZM40,58h16v1h-16ZM15,60h7v1h-7ZM11,61h21v1h-21ZM37,61h10v1h-10ZM55,61h9v1h-9ZM0,62h64v2h-64ZM0,64h62v1h-62ZM49,65h3v1h-3ZM55,65h2v1h-2ZM63,65h1v1h-1ZM0,66h64v3h-64ZM0,69h1v1h-1ZM51,69h13v1h-13ZM0,70h64v6h-64ZM0,76h36v1h-36ZM40,76h24v1h-24ZM0,77h43v1h-43ZM53,77h10v1h-10ZM34,78h12v1h-12ZM9,79h23v1h-23ZM52,80h12v1h-12ZM0,81h17v1h-17ZM22,85h7v1h-7ZM59,85h5v1h-5ZM0,86h2v1h-2ZM7,86h5v1h-5ZM49,89h14v1h-14ZM2,93h42v1h-42ZM6,94h58v1h-58ZM0,95h7v1h-7ZM9,95h4v1h-4ZM37,95h14v1h-14ZM38,98h26v1h-26ZM0,99h64v1h-64ZM0,100h30v1h-30ZM46,100h12v1h-12ZM26,102h38v1h-38ZM0,103h64v2h-64ZM0,105h2v1h-2ZM1,106h10v1h-10ZM33,106h28v1h-28ZM33,108h31v1h-31ZM0,109h64v2h-64ZM0,111h22v1h-22ZM21,114h38v1h-38ZM55,116h9v1h-9ZM0,117h1v1h-1ZM12,117h10v1h-10ZM34,117h10v1h-10ZM17,118h12v1h-12ZM33,118h31v1h-31ZM0,119h64v1h-64ZM0,120h21v1h-21ZM23,120h24v1h-24ZM59,120h5v1h-5ZM0,121h64v2h-64ZM0,123h35v1h-35ZM20,125h32v1h-32ZM15,126h49v1h-49ZM0,127h5v1h-5ZM19,127h16v1h-16ZM54,129h10v1h-10ZM0,130h24v1h-24ZM41,130h23v1h-23ZM0,131h64v8h-64ZM0,139h33v1h-33ZM41,139h2v1h-2ZM51,139h13v1h-13ZM0,140h64v1h-64ZM0,141h29v1h-29ZM24,264h40v1h-40ZM0,265h64v77h-64ZM0,342h17v1h-17ZM5,346h51v1h-51ZM53,347h11v1h-11ZM0,348h49v1h-49ZM2,349h35v1h-35ZM11,351h53v1h-53ZM0,352h64v1h-64ZM0,353h35v1h-35ZM49,354h2v1h-2ZM59,354h2v1h-2ZM63,354h1v1h-1ZM0,355h64v2h-64ZM0,357h10v1h-10ZM37,358h7v1h-7ZM3,361h4v1h-4ZM35,362h4v1h-4ZM57,362h4v1h-4ZM63,362h1v1h-1ZM0,363h43v1h-43ZM22,372h9v1h-9ZM9,373h55v1h-55ZM0,374h55v1h-55ZM57,374h7v1h-7ZM0,375h28v1h-28ZM6,376h57v1h-57ZM6,377h11v1h-11ZM49,377h15v1h-15ZM0,378h64v6h-64ZM0,384h50v1h-50ZM31,390h33v1h-33ZM0,391h64v2h-64ZM0,393h29v1h-29ZM52,393h12v1h-12ZM0,394h40v1h-40ZM42,394h22v1h-22ZM0,395h48v1h-48ZM50,395h14v1h-14ZM0,396h53v1h-53ZM57,396h7v1h-7ZM0,397h64v23h-64ZM0,420h26v1h-26ZM28,420h8v1h-8ZM43,421h21v1h-21ZM0,422h38v1h-38ZM44,422h20v1h-20ZM0,423h64v7h-64ZM0,430h20v1h-20ZM26,430h10v1h-10Z"/><path fill="rgba(0,255,255,255)" d="M38,0h11v1h-11ZM61,0h2v1h-2ZM60,3h4v1h-4ZM12,5h3v1h-3ZM34,5h14v1h-14ZM53,7h8v1h-8ZM15,8h49v1h-49ZM0,9h64v4h-64ZM0,13h1v1h-1ZM3,13h18v1h-18ZM25,13h13v1h-13ZM48,14h16v1h-16ZM0,15h64v2h-64ZM0,17h15v1h-15ZM51,18h12v1h-12ZM9,19h6v1h-6ZM45,19h17v1h-17ZM23,42h41v1h-41ZM0,43h15v1h-15ZM17,43h33v1h-33ZM54,43h10v1h-10ZM2,44h3v1h-3ZM11,44h8v1h-8ZM52,44h4v1h-4ZM58,44h6v1h-6ZM0,45h6v1h-6ZM16,45h48v1h-48ZM0,46h62v1h-62ZM20,47h44v1h-44ZM0,48h17v1h-17ZM22,48h37v1h-37ZM15,49h18v1h-18ZM20,50h44v1h-44ZM0,51h55v1h-55ZM59,51h5v1h-5ZM0,52h64v5h-64ZM0,57h7v1h-7ZM9,57h15v1h-15ZM26,57h5v1h-5ZM33,57h6v1h-6ZM41,57h11v1h-11ZM56,57h3v1h-3ZM61,57h3v1h-3ZM0,58h3v1h-3ZM5,58h35v1h-35ZM56,58h8v1h-8ZM0,59h64v1h-64ZM0,60h15v1h-15ZM22,60h42v1h-42ZM0,61h11v1h-11ZM32,61h5v1h-5ZM47,61h8v1h-8ZM62,64h2v1h-2ZM0,65h49v1h-49ZM52,65h3v1h-3ZM57,65h6v1h-6ZM1,69h50v1h-50ZM36,76h4v1h-4ZM43,77h10v1h-10ZM63,77h1v1h-1ZM0,78h34v1h-34ZM46,78h18v1h-18ZM0,79h9v1h-9ZM32,79h32v1h-32ZM0,80h52v1h-52ZM17,81h47v1h-47ZM0,82h64v3h-64ZM0,85h22v1h-22ZM29,85h30v1h-30ZM2,86h5v1h-5ZM12,86h52v1h-52ZM0,87h64v2h-64ZM0,89h49v1h-49ZM63,89h1v1h-1ZM0,90h64v3h-64ZM0,93h2v1h-2ZM44,93h20v1h-20ZM0,94h6v1h-6ZM7,95h2v1h-2ZM13,95h24v1h-24ZM51,95h13v1h-13ZM0,96h64v2h-64ZM0,98h38v1h-38ZM30,100h16v1h-16ZM58,100h6v1h-6ZM0,101h58v1h-58ZM2,105h62v1h-62ZM0,106h1v1h-1ZM11,106h22v1h-22ZM61,106h3v1h-3ZM0,107h21v1h-21ZM58,112h6v1h-6ZM0,113h64v1h-64ZM0,114h21v1h-21ZM59,114h5v1h-5ZM0,115h34v1h-34ZM44,115h20v1h-20ZM0,116h55v1h-55ZM1,117h11v1h-11ZM22,117h12v1h-12ZM44,117h20v1h-20ZM0,118h17v1h-17ZM56,346h8v1h-8ZM0,347h6v1h-6ZM8,347h45v1h-45ZM49,348h15v1h-15ZM0,349h2v1h-2ZM44,349h20v1h-20ZM0,350h30v1h-30ZM32,350h32v1h-32ZM0,351h11v1h-11ZM35,353h29v1h-29ZM0,354h49v1h-49ZM51,354h8v1h-8ZM61,354h2v1h-2ZM10,357h54v1h-54ZM0,358h37v1h-37ZM44,358h20v1h-20ZM0,359h64v2h-64ZM0,361h3v1h-3ZM7,361h57v1h-57ZM0,362h35v1h-35ZM39,362h18v1h-18ZM43,363h21v1h-21ZM0,364h64v8h-64ZM0,372h22v1h-22ZM31,372h28v1h-28ZM20,430h6v1h-6Z"/><path fill="rgba(255,0,0,255)" d="M14,14h2v1h-2ZM11,49h4v1h-4ZM58,101h6v1h-6ZM0,102h26v1h-26ZM22,111h42v1h-42ZM0,112h58v1h-58ZM34,115h10v1h-10ZM29,118h4v1h-4ZM21,120h2v1h-2ZM47,120h12v1h-12ZM35,123h29v1h-29ZM0,124h64v1h-64ZM0,125h20v1h-20ZM52,125h12v1h-12ZM0,126h15v1h-15ZM5,127h14v1h-14ZM35,127h29v1h-29ZM0,128h64v1h-64ZM0,129h54v1h-54ZM24,130h17v1h-17ZM33,139h8v1h-8ZM43,139h8v1h-8ZM17,342h47v1h-47ZM0,343h64v3h-64ZM0,346h5v1h-5ZM6,347h2v1h-2ZM37,349h7v1h-7ZM30,350h2v1h-2ZM61,362h2v1h-2ZM59,372h5v1h-5ZM0,373h9v1h-9ZM55,374h2v1h-2ZM28,375h36v1h-36ZM0,376h6v2h-6ZM63,376h1v1h-1ZM17,377h32v1h-32ZM50,384h14v1h-14ZM0,385h64v5h-64ZM0,390h31v1h-31ZM29,393h23v1h-23ZM40,394h2v1h-2ZM48,395h2v1h-2ZM53,396h4v1h-4ZM26,420h2v1h-2ZM36,420h28v1h-28ZM0,421h43v1h-43ZM38,422h6v1h-6Z"/><path fill="rgba(0,0,255,255)" d="M21,107h43v1h-43ZM0,108h33v1h-33ZM21,193h43v1h-43ZM0,194h64v7h-64ZM0,201h49v1h-49ZM2,261h62v1h-62ZM0,262h64v2h-64ZM0,264h24v1h-24Z"/><path fill="rgba(0,255,0,255)" d="M29,141h35v1h-35ZM0,142h64v51h-64ZM0,193h21v1h-21ZM49,201h15v1h-15ZM0,202h64v59h-64ZM0,261h2v1h-2Z"/></g></svg>